# xmcd CD database file
#
# Track frame offsets:
#	183
#	12633
#	20818
#	31573
#	45290
#	58358
#	76668
#	88083
#	99215
#	110068
#	118480
#	130658
#	139485
#	153055
#	166800
#	182573
#	195760
#	205103
#	212713
#	225988
#
# Disc length: 3161 seconds
#
# Revision: 4
# Processed by: cddbd v1.5.2PL0 Copyright (c) Steve Scherf et al.
# Submitted via: CDex 1.51
#
DISCID=fd0c5714
DTITLE=Nat King Cole - The Gold Collection - CD 2
DYEAR=1997
DGENRE=Jazz
TTITLE0=Is You Is Or Is You Ain't My Baby
TTITLE1=I'm In The Mood For Love
TTITLE2=Embraceable You
TTITLE3=What Is This Thing Called Love
TTITLE4=Besame Mucho
TTITLE5=Bacarolle
TTITLE6=On The Sunny Side On The Street
TTITLE7=The Man I Love
TTITLE8=Too Marvellous For Words
TTITLE9=Swinging The Blues
TTITLE10=That'll Just About Knock Me Out
TTITLE11=Indiana
TTITLE12=I'm Through With Love
TTITLE13=Come To Baby Do
TTITLE14=You Call It Madness
TTITLE15=I'm An Errand Boy For Rhythm
TTITLE16=It's Almost Like Being In Love
TTITLE17=A Pile O'cole
TTITLE18=Any Old Time
TTITLE19=A Trio Grooves In Brooklyn
EXTD=YEAR: 1997
EXTT0=
EXTT1=
EXTT2=
EXTT3=
EXTT4=
EXTT5=
EXTT6=
EXTT7=
EXTT8=
EXTT9=
EXTT10=
EXTT11=
EXTT12=
EXTT13=
EXTT14=
EXTT15=
EXTT16=
EXTT17=
EXTT18=
EXTT19=
PLAYORDER=
